<svg clip-rule="evenodd" fill-rule="evenodd" stroke-linejoin="round" stroke-miterlimit="2" viewBox="0 0 16 12" xmlns="http://www.w3.org/2000/svg"><g fill-rule="nonzero" transform="matrix(.1 0 0 -.1 0 11.325)"><path d="m6.938 94.5c-3.038-.4-5.588-2.687-6.588-5.912l-.287-.938-.038-43.15-.025-43.162h16.75v24.312l63.438.038 63.437.024.025-12.087.038-12.1 8.162-.037 8.15-.025-.037 37.462-.025 37.475-.288.975c-.9 3.2-3.262 5.538-6.212 6.15-3.925.825-7.713-1.262-9.225-5.075-.713-1.8-.713-1.662-.713-18.062v-15.05h-127.112l-.05 20.975c-.025 18.8-.05 21.05-.238 21.787-.65 2.638-2.125 4.563-4.287 5.613-1.488.725-3.238 1-4.875.787z" fill="#137bba"/><path d="m23.75 82.45c-1.725-.212-3.225-.987-4.512-2.325-2.563-2.65-2.838-6.85-.638-9.762.663-.875 20.288-21.788 20.925-22.313 2.938-2.362 7.2-2.237 9.913.3 1.037.975 1.65 1.913 2.1 3.238.787 2.275.387 4.925-1.05 6.887-.575.788-20.338 21.85-21.013 22.4-1.5 1.213-3.687 1.813-5.725 1.575z" fill="#bee74b"/><path d="m59.888 62.063c-3.038-.438-5.538-2.7-6.325-5.738-.288-1.087-.2-3.112.162-4.2.988-2.837 3.363-4.775 6.375-5.175.638-.075 13.725-.112 38.525-.087 35.875.037 37.6.05 38.313.275 2.887.875 5 3.2 5.512 6.075.688 3.85-1.65 7.537-5.512 8.7-.713.225-2.388.237-38.5.25-22.35.012-38.075-.025-38.55-.1z" fill="#c54d58"/></g></svg>