<svg clip-rule="evenodd" fill-rule="evenodd" stroke-linejoin="round" stroke-miterlimit="2" viewBox="0 0 100 100" xmlns="http://www.w3.org/2000/svg"><g fill-rule="nonzero"><path d="m10.924 85.196v14.492h-7.591v-53.047c0-2.096 1.699-3.815 3.795-3.815 2.123 0 3.795 1.719 3.795 3.815v31.367h85.627v21.68h-7.656v-14.492z" fill="#137bba"/><path d="m22.624 61.926c3.796 0 6.869-3.072 6.869-6.887 0-3.789-3.073-6.863-6.869-6.863-3.815 0-6.888 3.074-6.888 6.863 0 3.816 3.073 6.887 6.888 6.887z" fill="#454545"/><path d="m96.667 72.305-.026-9.466c-.026-3.008-2.552-5.078-5.481-5.443l-54.05-5.377c-.117-.026-.208-.078-.306-.078-1.862 0-3.379 1.523-3.379 3.372v10.208h-14.141c-1.888 0-3.398 1.537-3.398 3.398 0 1.875 1.511 3.385 3.398 3.385h77.383z" fill="#bee74b"/><path d="m100 25.196-49.935-24.818-.02-.065-.045.026-.045-.026-.02.065-49.935 24.818 4.16 8.372 45.84-22.786 45.84 22.786z" fill="#c54d58"/></g></svg>